<svg xmlns="http://www.w3.org/2000/svg" width="40" height="40" viewBox="0 0 40 40" fill="none">
  <g clip-path="url(#clip0_6_406)">
    <path d="M32.2508 2.61123C31.4229 2.61123 30.6469 2.83469 29.9775 3.22288V1.47462C29.9775 0.846911 29.4686 0.338013 28.8409 0.338013H10.6552C10.0274 0.338013 9.51849 0.846911 9.51849 1.47462V3.23675C8.84387 2.83992 8.05893 2.61123 7.22125 2.61123C4.71434 2.61123 2.6748 4.65077 2.6748 7.15767C2.6748 9.06983 3.24144 10.9174 4.31342 12.5008C6.13836 15.1963 8.38877 15.8958 10.2509 16.6406C11.3246 19.3146 13.4959 21.4337 16.2045 22.437L15.3663 27.7682H15.2016C13.3214 27.7682 11.7918 29.2979 11.7918 31.178V36.8611H10.6552C10.0275 36.8611 9.51856 37.37 9.51856 37.9977C9.51856 38.6254 10.0275 39.1343 10.6552 39.1343H28.8409C29.4686 39.1343 29.9775 38.6254 29.9775 37.9977C29.9775 37.37 29.4686 36.8611 28.8409 36.8611H27.7043V31.178C27.7043 29.2979 26.1747 27.7682 24.2945 27.7682H24.1298L23.2917 22.437C26.0042 21.4322 28.1779 19.3085 29.25 16.6291C31.0091 15.9255 33.315 15.224 35.1587 12.5008C36.2306 10.9174 36.7973 9.06976 36.7973 7.15767C36.7972 4.65077 34.7577 2.61123 32.2508 2.61123ZM9.51008 13.896C6.73872 12.7875 4.94803 10.1426 4.94803 7.15767C4.94803 5.90422 5.96779 4.88445 7.22125 4.88445C8.4747 4.88445 9.49447 5.90422 9.49447 7.15767C9.49447 7.23762 9.50288 7.31551 9.51856 7.39075V12.8407C9.51856 13.206 9.53819 13.5668 9.57577 13.9223L9.51008 13.896ZM25.4311 36.8611H14.065V34.5879H25.4311V36.8611ZM24.2945 30.0414C24.9212 30.0414 25.4311 30.5513 25.4311 31.178V32.3146H14.065V31.178C14.065 30.5513 14.5749 30.0414 15.2016 30.0414C15.8183 30.0414 22.8483 30.0414 24.2945 30.0414ZM17.6675 27.7682L18.4196 22.9841C18.8545 23.0407 19.2979 23.0702 19.7481 23.0702C20.1982 23.0702 20.6416 23.0407 21.0765 22.9841L21.8287 27.7682H17.6675ZM27.7043 12.8407C27.7043 17.2278 24.1351 20.797 19.7481 20.797C15.361 20.797 11.7918 17.2278 11.7918 12.8407V7.15767H27.7043V12.8407ZM27.7043 4.88445H11.7918V2.61123H27.7043V4.88445ZM29.9619 13.896L29.9215 13.9122C29.9583 13.56 29.9775 13.2025 29.9775 12.8407V7.15767C29.9775 5.90422 30.9973 4.88445 32.2508 4.88445C33.5042 4.88445 34.524 5.90422 34.524 7.15767C34.524 10.1426 32.7333 12.7875 29.9619 13.896Z" fill="#3A3A3A"/>
  </g>
  <defs>
    <clipPath id="clip0_6_406">
      <rect width="38.7963" height="38.7963" fill="white" transform="translate(0.337891 0.338013)"/>
    </clipPath>
  </defs>
</svg>