<svg xmlns="http://www.w3.org/2000/svg" width="40" height="40" viewBox="0 0 40 40" fill="none">
  <g clip-path="url(#clip0_6_424)">
    <path d="M36.3532 20.4186V2.75185C36.3532 2.12157 35.8422 1.6106 35.2119 1.6106H4.63539C4.00512 1.6106 3.49414 2.12157 3.49414 2.75185V21.8269C2.9436 21.9071 2.40539 22.1209 1.92926 22.4743C0.428282 23.5387 0.0732774 25.9205 1.33056 27.3895L6.47098 33.6212C9.65294 37.3453 13.0331 37.8016 18.0581 37.8016C22.3703 37.8016 24.2982 37.8206 28.0563 36.9643L31.7158 36.089C32.3091 36.9176 33.2511 37.4544 34.3101 37.4544H36.1128C37.904 37.4544 39.3612 35.9193 39.3612 34.0323V23.8304C39.3613 22.0286 38.0324 20.5487 36.3532 20.4186ZM31.2235 22.7662L29.7029 21.9939C27.2027 20.7319 24.3121 20.6852 21.7724 21.8659C21.0795 22.1384 19.5683 23.0528 18.7844 23.0222H13.5079C11.7576 23.0222 10.3337 24.4461 10.3337 26.1964V27.0287C10.3238 27.0183 10.3136 27.0085 10.3039 26.998L6.53588 22.908C6.30786 22.6605 6.05168 22.4534 5.77672 22.2872V10.9646H15.1162V15.1481C15.1162 15.7784 15.6272 16.2894 16.2574 16.2894H23.4588C24.0891 16.2894 24.6001 15.7784 24.6001 15.1481V10.9646H34.0708V20.4185C32.7373 20.5215 31.6254 21.4754 31.2235 22.7662ZM17.3986 10.9646H22.3175V14.0069H17.3986V10.9646ZM34.0707 8.68209H24.6001V3.8931H34.0708V8.68209H34.0707ZM22.3176 3.8931V8.68217H17.3987V3.8931H22.3176ZM15.1161 3.8931V8.68217H5.77664V3.8931H15.1161ZM27.5266 34.744C24.0549 35.5392 21.9641 35.507 18.099 35.507C13.3819 35.507 11.1026 35.4307 8.23185 32.1687L3.09143 25.937C2.1973 24.7727 3.81681 23.3982 4.85717 24.4544L8.6252 28.5445C9.62106 29.5953 10.8742 30.1736 12.4188 30.2076H22.8657C23.4959 30.2076 24.0069 29.6966 24.0069 29.0664C24.0069 28.4361 23.4959 27.9251 22.8657 27.9251H12.6161V26.1963C12.6161 25.7046 13.0161 25.3046 13.5078 25.3046H18.7843C19.973 25.3897 21.6888 24.3971 22.7346 23.9355C24.6367 23.0511 26.8018 23.0861 28.6718 24.03L31.0619 25.244V33.8983L27.5266 34.744ZM37.0788 34.0322C37.0788 34.6606 36.6455 35.1718 36.1129 35.1718H34.3102C33.7776 35.1718 33.3444 34.6606 33.3444 34.0322V23.8304C33.3444 23.202 33.7777 22.6907 34.3102 22.6907H36.1129C36.6455 22.6907 37.0788 23.2019 37.0788 23.8304V34.0322Z" fill="#3A3A3A"/>
  </g>
  <defs>
    <clipPath id="clip0_6_424">
      <rect width="38.7963" height="38.7963" fill="white" transform="translate(0.564941 0.307861)"/>
    </clipPath>
  </defs>
</svg>